<?xml version="1.0" encoding="utf-8"?>
<!-- Generator: Adobe Illustrator 26.0.1, SVG Export Plug-In . SVG Version: 6.00 Build 0)  -->
<svg version="1.1" id="Layer_1" xmlns="http://www.w3.org/2000/svg" xmlns:xlink="http://www.w3.org/1999/xlink" x="0px" y="0px"
	 viewBox="0 0 104.6 447.87" style="enable-background:new 0 0 104.6 447.87;" xml:space="preserve">
<style type="text/css">
	.st0{fill:#2C3ED0;}
	.st1{fill:#FFFFFF;}
</style>
<g>
	<path class="st0" d="M85.74,425.24c2.47-1.58,4.97-2.19,7.48-1.84c2.51,0.35,4.71,1.68,6.6,3.98c2.32,2.84,3.24,5.75,2.75,8.74
		c-0.49,2.99-2.2,5.69-5.13,8.09c-3.13,2.56-6.27,3.78-9.43,3.65c-3.16-0.13-5.87-1.57-8.13-4.34c-1.89-2.3-2.82-4.62-2.8-6.94
		c0.02-2.33,1-4.48,2.93-6.47l2.62,3.2c-2.26,2.78-2.33,5.47-0.2,8.06c1.47,1.79,3.29,2.67,5.46,2.63c2.18-0.04,4.39-0.98,6.65-2.83
		c2.28-1.87,3.67-3.83,4.16-5.9c0.5-2.07,0.03-3.97-1.4-5.72c-1.15-1.41-2.5-2.21-4.05-2.42c-1.55-0.21-3.2,0.2-4.95,1.23
		L85.74,425.24z"/>
	<path class="st0" d="M59.34,409.74c-3.09-0.59-5.6-2.45-7.53-5.56c-1.93-3.12-2.48-6.13-1.66-9.03c0.82-2.9,2.94-5.41,6.35-7.52
		c3.49-2.16,6.74-2.98,9.76-2.45c3.02,0.53,5.5,2.36,7.44,5.51c1.95,3.14,2.51,6.2,1.7,9.17c-0.81,2.97-2.93,5.51-6.34,7.62
		C65.67,409.58,62.43,410.33,59.34,409.74z M53.94,396.41c-0.73,2.06-0.48,4.09,0.75,6.08c1.24,2,2.95,3.13,5.14,3.4
		c2.19,0.27,4.51-0.36,6.96-1.88c2.53-1.57,4.15-3.37,4.86-5.41s0.42-4.1-0.87-6.18c-1.24-2-2.92-3.12-5.06-3.36
		s-4.47,0.42-7.01,1.99C56.27,392.57,54.68,394.35,53.94,396.41z"/>
	<path class="st0" d="M31.65,365.67l3.26-1.35c-1.74-0.43-3.15-1.09-4.22-1.97c-1.07-0.88-1.95-2.13-2.62-3.75
		c-1.27-3.07-0.84-5.67,1.3-7.81c-3.41-0.86-5.73-2.8-6.98-5.81c-0.96-2.32-1.04-4.34-0.25-6.08c0.79-1.73,2.35-3.08,4.66-4.04
		l15.68-6.48l1.53,3.69l-14.12,5.83c-1.85,0.77-3.13,1.63-3.83,2.6c-0.7,0.97-0.68,2.36,0.08,4.19c1.58,3.82,4.7,4.77,9.36,2.84
		l12.73-5.26l1.53,3.69l-14.38,5.94c-1.71,0.71-2.9,1.53-3.58,2.47c-0.68,0.94-0.68,2.22-0.01,3.84c0.95,2.29,2.3,3.58,4.07,3.89
		c1.77,0.3,3.86-0.04,6.26-1.04l11.86-4.9l1.53,3.69l-22.41,9.26L31.65,365.67z"/>
	<path class="st0" d="M1.94,308l4.73-1.21l1,3.92l-4.73,1.21L1.94,308z M10.86,305.72l23.49-6.02l1,3.92l-23.49,6.02L10.86,305.72z"
		/>
	<path class="st0" d="M4.43,273.76l3.73-0.49c-3.18-1.6-5-4.14-5.46-7.62c-0.37-2.83,0.1-4.97,1.41-6.42
		c1.31-1.45,3.39-2.37,6.25-2.74l15.98-2.11l0.52,3.96l-14.17,1.87c-1.18,0.16-2.1,0.32-2.76,0.48c-0.66,0.17-1.35,0.46-2.07,0.87
		c-0.72,0.41-1.2,1.01-1.45,1.8c-0.24,0.79-0.29,1.78-0.13,2.96c0.6,4.57,3.79,6.47,9.57,5.71l12.58-1.66l0.52,3.96l-24.04,3.17
		L4.43,273.76z"/>
	<path class="st0" d="M0.79,207.55l21.62,0.26c2.1,0.03,3.72,0.15,4.86,0.39c1.14,0.23,2.21,0.65,3.2,1.26
		c2.92,1.82,4.36,5.03,4.3,9.64c-0.03,2.73-0.62,5.02-1.75,6.89c-1.13,1.87-2.97,2.94-5.51,3.22l0.05-4.09
		c2.7-0.44,4.07-2.5,4.12-6.2c0.03-2.47-0.58-4.28-1.82-5.4c-1.24-1.13-3.25-1.74-6.04-1.83l-2.96-0.08
		c2.93,1.57,4.37,4.16,4.33,7.76c-0.04,3.26-1.18,5.84-3.43,7.74c-2.25,1.9-5.25,2.83-9.01,2.78c-3.54-0.04-6.56-1.03-9.06-2.98
		c-2.5-1.94-3.73-4.62-3.69-8.03c0.02-1.69,0.4-3.2,1.14-4.52c0.74-1.32,1.78-2.35,3.14-3.09l-3.52-0.04L0.79,207.55z M3.48,218.72
		c-0.03,2.16,0.79,3.87,2.45,5.13c1.66,1.26,3.97,1.9,6.91,1.94c2.66,0.03,4.81-0.58,6.44-1.85c1.63-1.26,2.46-2.96,2.48-5.09
		c0.03-2.22-0.8-3.98-2.48-5.27s-3.99-1.95-6.93-1.99c-2.76-0.03-4.92,0.58-6.48,1.83C4.31,214.67,3.51,216.44,3.48,218.72z"/>
	<path class="st0" d="M20.64,128.23l-0.99,3.87c-2.92-0.48-4.83,1.07-5.74,4.65c-0.38,1.49-0.39,2.73-0.03,3.73
		c0.36,1,1.03,1.62,2,1.87c0.27,0.07,0.55,0.11,0.82,0.11c0.27,0.01,0.53-0.05,0.77-0.17c0.24-0.12,0.45-0.22,0.64-0.32
		c0.19-0.1,0.39-0.29,0.61-0.57c0.22-0.28,0.39-0.5,0.53-0.64c0.13-0.14,0.31-0.42,0.53-0.83c0.22-0.41,0.37-0.71,0.47-0.88
		c0.09-0.17,0.27-0.51,0.52-1.01c0.26-0.5,0.42-0.82,0.49-0.97c0.53-1.06,0.94-1.85,1.24-2.38c0.29-0.52,0.77-1.22,1.43-2.11
		c0.66-0.88,1.28-1.53,1.85-1.93c0.57-0.4,1.3-0.71,2.18-0.92c0.88-0.21,1.8-0.2,2.78,0.05c2.28,0.58,3.88,1.93,4.81,4.06
		s1.02,4.67,0.27,7.61c-0.81,3.19-2.14,5.46-3.97,6.82c-1.83,1.36-4.09,1.76-6.76,1.21l0.97-3.83c3.36,0.63,5.56-1.07,6.59-5.11
		c0.44-1.73,0.44-3.21-0.01-4.44c-0.45-1.23-1.26-1.99-2.45-2.3c-0.79-0.2-1.51-0.09-2.17,0.32c-0.66,0.42-1.18,0.93-1.58,1.54
		c-0.4,0.61-0.91,1.5-1.53,2.67c-0.08,0.17-0.14,0.3-0.2,0.39c-0.13,0.26-0.41,0.81-0.83,1.66c-0.43,0.85-0.75,1.45-0.97,1.81
		c-0.22,0.36-0.56,0.88-1,1.56c-0.45,0.68-0.86,1.16-1.24,1.45c-0.38,0.29-0.85,0.6-1.4,0.93c-0.55,0.33-1.15,0.51-1.79,0.54
		s-1.34-0.05-2.1-0.24c-2.12-0.54-3.6-1.78-4.44-3.72c-0.83-1.94-0.9-4.28-0.2-7.01c0.7-2.76,1.93-4.85,3.68-6.26
		C16.17,128.02,18.24,127.62,20.64,128.23z"/>
	<path class="st0" d="M25.96,98.71c-1.33-2.85-1.3-5.98,0.1-9.36s3.51-5.6,6.35-6.64c2.83-1.03,6.1-0.79,9.81,0.74
		c3.79,1.57,6.36,3.73,7.7,6.48c1.34,2.75,1.3,5.84-0.11,9.26c-1.41,3.42-3.56,5.67-6.44,6.75c-2.89,1.08-6.18,0.86-9.89-0.67
		C29.79,103.75,27.29,101.57,25.96,98.71z M33.6,86.54c-2.1,0.61-3.6,2-4.49,4.17c-0.9,2.17-0.81,4.22,0.26,6.16
		c1.07,1.93,2.93,3.45,5.6,4.55c2.75,1.13,5.16,1.39,7.23,0.77c2.07-0.62,3.57-2.06,4.5-4.32c0.9-2.17,0.82-4.2-0.24-6.07
		c-1.06-1.88-2.96-3.38-5.71-4.52C38.08,86.17,35.7,85.93,33.6,86.54z"/>
	<path class="st0" d="M47.32,53.68c-0.85-3.03-0.31-6.11,1.63-9.22c1.93-3.12,4.38-4.95,7.34-5.51c2.96-0.56,6.15,0.22,9.56,2.33
		c3.49,2.16,5.67,4.71,6.54,7.65c0.87,2.94,0.33,5.98-1.62,9.12c-1.95,3.14-4.44,5.01-7.46,5.61c-3.02,0.6-6.24-0.16-9.65-2.28
		C50.29,59.28,48.17,56.71,47.32,53.68z M56.85,42.91c-2.17,0.26-3.87,1.39-5.11,3.38c-1.24,2-1.49,4.04-0.75,6.12
		c0.74,2.08,2.33,3.88,4.78,5.4c2.53,1.57,4.87,2.21,7.01,1.94c2.14-0.28,3.86-1.45,5.15-3.53c1.24-2,1.49-4.01,0.75-6.03
		c-0.74-2.02-2.37-3.82-4.9-5.39C61.33,43.28,59.02,42.65,56.85,42.91z"/>
	<path class="st0" d="M75.74,9.43l2.73,2.58c-0.76-3.48,0.06-6.5,2.47-9.05c1.96-2.07,3.92-3.06,5.87-2.96
		c1.95,0.1,3.98,1.14,6.07,3.12l11.71,11.08l-2.75,2.9L91.47,7.29c-0.86-0.82-1.57-1.43-2.11-1.84c-0.54-0.41-1.2-0.76-1.97-1.06
		c-0.77-0.3-1.54-0.29-2.31,0.01s-1.56,0.9-2.38,1.76c-3.17,3.35-2.63,7.02,1.6,11.03l9.22,8.72l-2.74,2.9L73.15,12.16L75.74,9.43z"
		/>
</g>
</svg>
