<?xml version="1.0" encoding="utf-8"?>
<!-- Generator: Adobe Illustrator 26.0.1, SVG Export Plug-In . SVG Version: 6.00 Build 0)  -->
<svg version="1.1" id="Layer_1" xmlns="http://www.w3.org/2000/svg" xmlns:xlink="http://www.w3.org/1999/xlink" x="0px" y="0px"
	 viewBox="0 0 480.53 146.45" style="enable-background:new 0 0 480.53 146.45;" xml:space="preserve">
<style type="text/css">
	.st0{fill:#2C3ED0;}
	.st1{fill:#FFFFFF;}
</style>
<g>
	<g>
		<path class="st1" d="M35.18,29.31v19.11h41.97v24.13H35.18v46.14H0V5.34h83.62v23.96H35.18z"/>
		<path class="st1" d="M121.91,78.2v40.48H89.93V37.73h24.69l4.21,6.48c5.18-5.34,11.66-8.1,18.3-8.1h13.25v25.74h-13.25
			C125.31,61.85,121.91,64.6,121.91,78.2z"/>
		<path class="st1" d="M194.34,15.22c0,10.85-5.34,15.22-17.81,15.22c-12.31,0-17.65-4.37-17.65-15.22C158.88,4.7,164.23,0,176.69,0
			C189,0,194.34,4.7,194.34,15.22z M160.34,118.68V37.73h32.54v80.96H160.34z"/>
		<path class="st1" d="M205.24,76.83c0-29.47,9.44-42.1,34.54-42.1c8.91,0,16.03,1.62,21.53,5.02V3.97h32.71v113.34h-25.26
			l-4.05-5.99c-5.81,5.17-14.05,7.6-25.02,7.61C214.66,118.9,205.24,106.27,205.24,76.83z M261.31,76.83
			c0-13.92-3.72-19.75-12.31-19.75c-8.74,0-12.47,5.83-12.47,19.75s3.72,19.75,12.47,19.75C257.59,96.59,261.31,90.76,261.31,76.83z
			"/>
		<path class="st1" d="M336.27,118.93c-21.7,0-30.48-7.77-30.48-26.07c0-19.27,11.86-27.52,40.85-27.52h9.55v-3.08
			c0-7.29-2.43-10.36-8.42-10.36c-5.83,0-8.42,2.59-8.42,8.74h-30.76c0-18.13,11.98-25.91,40.15-25.91s39.15,9.23,39.15,30.93v51.65
			h-24.26l-3.72-5.51C354.57,116.66,346.8,118.93,336.27,118.93z M349.71,82.34c-6.31,0-13.39,0.81-13.39,8.74
			c0,5.51,3.83,7.34,9.18,7.34c8.42,0,10.69-5.56,10.69-13.17v-2.91H349.71z"/>
		<path class="st1" d="M425.16,115.21l-34.65-78.85h30.76l15.54,41.45l12.95-41.45h30.76l-27.69,79.82
			c-7.29,21.21-16.35,30.28-30.12,30.28h-20.4v-18.78h11.33c5.18,0,8.42-3.08,10.69-10.2L425.16,115.21z"/>
	</g>
</g>
</svg>
